# xmcd CD database file
#
# Track frame offsets:
#	183
#	28328
#	68823
#	84190
#	104265
#	132948
#	145478
#	171160
#	187655
#	209390
#	234365
#	253463
#
# Disc length: 3681 seconds
#
# Revision: 2
# Processed by: cddbd v1.5.1PL0 Copyright (c) Steve Scherf et al.
# Submitted via: CDex 1.51
#
DISCID=a80e5f0c
DTITLE=Nina Simone - In Concert
DYEAR=1989
DGENRE=Blues
TTITLE0=Ain't Got No/I Got Life
TTITLE1=Four Women
TTITLE2=Backlash Blues
TTITLE3=No Opportunity Necessary, No Experience Needed
TTITLE4=Young, Gifted And Black
TTITLE5=Ain't No Use
TTITLE6=After You've Gone
TTITLE7=Sugar In My Bowl
TTITLE8=Mississipi Goddamn
TTITLE9=See Lime Woman
TTITLE10=The Other Woman
TTITLE11=I Love Porgy
EXTD=YEAR: 1989
EXTT0=
EXTT1=
EXTT2=
EXTT3=
EXTT4=
EXTT5=
EXTT6=
EXTT7=
EXTT8=
EXTT9=
EXTT10=
EXTT11=
PLAYORDER=
